<?xml version="1.0" standalone="no"?>
<svg xmlns="http://www.w3.org/2000/svg" xmlns:xlink="http://www.w3.org/1999/xlink" width="444pt" height="971pt" viewBox="0.00 0.00 444.40 971.00">
<g id="graph0" class="graph" transform="translate(4,967) scale(1)" data-name="G">

<polygon fill="#2e3e56" stroke="transparent" points="-4,4 -4,-967 440.4,-967 440.4,4 -4,4" style=""/>
<g id="clust1" class="cluster" data-name="clusterDAOProject">

<path fill="#445773" stroke="#445773" d="M20,-147C20,-147 416.4,-147 416.4,-147 422.4,-147 428.4,-153 428.4,-159 428.4,-159 428.4,-806 428.4,-806 428.4,-812 422.4,-818 416.4,-818 416.4,-818 20,-818 20,-818 14,-818 8,-812 8,-806 8,-806 8,-159 8,-159 8,-153 14,-147 20,-147" style=""/>
<text text-anchor="middle" x="218.2" y="-801.4" font-family="Times,serif" font-size="14.00" fill="#f0f0f0" style="">DAOProject</text>
</g>
<g id="clust2" class="cluster" data-name="clusterCounters.Counter">

<path fill="#3b4b63" stroke="#e8726d" stroke-dasharray="5,2" d="M258.08,-8C258.08,-8 349.37,-8 349.37,-8 355.37,-8 361.37,-14 361.37,-20 361.37,-20 361.37,-127 361.37,-127 361.37,-133 355.37,-139 349.37,-139 349.37,-139 258.08,-139 258.08,-139 252.08,-139 246.08,-133 246.08,-127 246.08,-127 246.08,-20 246.08,-20 246.08,-14 252.08,-8 258.08,-8" style=""/>
<text text-anchor="middle" x="303.73" y="-122.4" font-family="Times,serif" font-size="14.00" fill="#f0f0f0" style="">Counters.Counter</text>
</g>
<g id="clust3" class="cluster" data-name="cluster_01">

<polygon fill="#2e3e56" stroke="black" points="10.53,-826 10.53,-955 338.73,-955 338.73,-826 10.53,-826" style=""/>
<text text-anchor="middle" x="174.63" y="-938.4" font-family="Times,serif" font-size="14.00" style="">Legend</text>
</g>
<!-- DAOProject.&lt;Constructor&gt; -->
<g id="node1" class="node" pointer-events="visible" data-name="DAOProject.&lt;Constructor&gt;">

<ellipse fill="#ff9797" stroke="#ff9797" stroke-width="3" cx="83.53" cy="-767" rx="67.55" ry="18" style=""/>
<text text-anchor="middle" x="83.53" y="-762.8" font-family="Times,serif" font-size="14.00" style="">&lt;Constructor&gt;</text>
</g>
<!-- DAOProject.deposit -->
<g id="node2" class="node" pointer-events="visible" data-name="DAOProject.deposit">

<ellipse fill="#ff9797" stroke="#ff9797" stroke-width="3" cx="83.53" cy="-713" rx="38.86" ry="18" style=""/>
<text text-anchor="middle" x="83.53" y="-708.8" font-family="Times,serif" font-size="14.00" style="">deposit</text>
</g>
<!-- DAOProject.DAOToken -->
<g id="node7" class="node" pointer-events="visible" data-name="DAOProject.DAOToken">

<ellipse fill="#edad56" stroke="#edad56" stroke-width="3" cx="303.73" cy="-713" rx="56.76" ry="18" style=""/>
<text text-anchor="middle" x="303.73" y="-708.8" font-family="Times,serif" font-size="14.00" style="">DAOToken</text>
</g>
<!-- DAOProject.deposit&#45;&gt;DAOProject.DAOToken -->
<g id="edge1" class="edge" data-name="DAOProject.deposit-&gt;DAOProject.DAOToken">

<path fill="none" stroke="#1bc6a6" stroke-width="2" d="M122.53,-713C153.9,-713 199.14,-713 236.44,-713" style=""/>
<polygon fill="#1bc6a6" stroke="#1bc6a6" stroke-width="2" points="236.74,-716.5 246.74,-713 236.74,-709.5 236.74,-716.5" style=""/>
</g>
<!-- DAOProject.approvalForDAOreq -->
<g id="node8" class="node" pointer-events="visible" data-name="DAOProject.approvalForDAOreq">

<ellipse fill="#edad56" stroke="#edad56" stroke-width="3" cx="303.73" cy="-767" rx="91.48" ry="18" style=""/>
<text text-anchor="middle" x="303.73" y="-762.8" font-family="Times,serif" font-size="14.00" style="">approvalForDAOreq</text>
</g>
<!-- DAOProject.deposit&#45;&gt;DAOProject.approvalForDAOreq -->
<g id="edge2" class="edge" data-name="DAOProject.deposit-&gt;DAOProject.approvalForDAOreq">

<path fill="none" stroke="#1bc6a6" stroke-width="2" d="M117.71,-721.99C137.75,-727.36 163.83,-734.23 187.05,-740 201.99,-743.71 218.05,-747.55 233.31,-751.13" style=""/>
<polygon fill="#1bc6a6" stroke="#1bc6a6" stroke-width="2" points="232.67,-754.58 243.21,-753.45 234.27,-747.76 232.67,-754.58" style=""/>
</g>
<!-- DAOProject.withdraw -->
<g id="node3" class="node" pointer-events="visible" data-name="DAOProject.withdraw">

<ellipse fill="#ff9797" stroke="#ff9797" stroke-width="3" cx="83.53" cy="-632" rx="47.52" ry="18" style=""/>
<text text-anchor="middle" x="83.53" y="-627.8" font-family="Times,serif" font-size="14.00" style="">withdraw</text>
</g>
<!-- DAOProject.withdraw&#45;&gt;DAOProject.DAOToken -->
<g id="edge6" class="edge" data-name="DAOProject.withdraw-&gt;DAOProject.DAOToken">

<path fill="none" stroke="#1bc6a6" stroke-width="2" d="M109.39,-647.41C129.65,-659.39 159.34,-675.66 187.05,-686 205.15,-692.75 225.49,-698.18 244.01,-702.34" style=""/>
<polygon fill="#1bc6a6" stroke="#1bc6a6" stroke-width="2" points="243.28,-705.77 253.79,-704.47 244.76,-698.92 243.28,-705.77" style=""/>
</g>
<!-- DAOProject.amountGreaterthanBalance -->
<g id="node9" class="node" pointer-events="visible" data-name="DAOProject.amountGreaterthanBalance">

<ellipse fill="#edad56" stroke="#edad56" stroke-width="3" cx="303.73" cy="-605" rx="116.85" ry="18" style=""/>
<text text-anchor="middle" x="303.73" y="-600.8" font-family="Times,serif" font-size="14.00" style="">amountGreaterthanBalance</text>
</g>
<!-- DAOProject.withdraw&#45;&gt;DAOProject.amountGreaterthanBalance -->
<g id="edge3" class="edge" data-name="DAOProject.withdraw-&gt;DAOProject.amountGreaterthanBalance">

<path fill="none" stroke="#1bc6a6" stroke-width="2" d="M128.94,-626.5C150.07,-623.89 176.25,-620.65 201.83,-617.49" style=""/>
<polygon fill="#1bc6a6" stroke="#1bc6a6" stroke-width="2" points="202.47,-620.93 211.97,-616.23 201.61,-613.99 202.47,-620.93" style=""/>
</g>
<!-- DAOProject.waitforProposalEnd -->
<g id="node10" class="node" pointer-events="visible" data-name="DAOProject.waitforProposalEnd">

<ellipse fill="#edad56" stroke="#edad56" stroke-width="3" cx="303.73" cy="-659" rx="88.06" ry="18" style=""/>
<text text-anchor="middle" x="303.73" y="-654.8" font-family="Times,serif" font-size="14.00" style="">waitforProposalEnd</text>
</g>
<!-- DAOProject.withdraw&#45;&gt;DAOProject.waitforProposalEnd -->
<g id="edge4" class="edge" data-name="DAOProject.withdraw-&gt;DAOProject.waitforProposalEnd">

<path fill="none" stroke="#1bc6a6" stroke-width="2" d="M128.94,-637.5C154.47,-640.65 187.39,-644.73 217.7,-648.48" style=""/>
<polygon fill="#1bc6a6" stroke="#1bc6a6" stroke-width="2" points="217.51,-651.98 227.86,-649.74 218.37,-645.03 217.51,-651.98" style=""/>
</g>
<!-- DAOProject.needtoendProposal -->
<g id="node11" class="node" pointer-events="visible" data-name="DAOProject.needtoendProposal">

<ellipse fill="#edad56" stroke="#edad56" stroke-width="3" cx="303.73" cy="-551" rx="84.54" ry="18" style=""/>
<text text-anchor="middle" x="303.73" y="-546.8" font-family="Times,serif" font-size="14.00" style="">needtoendProposal</text>
</g>
<!-- DAOProject.withdraw&#45;&gt;DAOProject.needtoendProposal -->
<g id="edge5" class="edge" data-name="DAOProject.withdraw-&gt;DAOProject.needtoendProposal">

<path fill="none" stroke="#1bc6a6" stroke-width="2" d="M109.39,-616.59C129.65,-604.61 159.34,-588.34 187.05,-578 200.55,-572.96 215.3,-568.67 229.61,-565.08" style=""/>
<polygon fill="#1bc6a6" stroke="#1bc6a6" stroke-width="2" points="230.53,-568.46 239.43,-562.71 228.88,-561.65 230.53,-568.46" style=""/>
</g>
<!-- DAOProject.newProposal -->
<g id="node4" class="node" pointer-events="visible" data-name="DAOProject.newProposal">

<ellipse fill="#ff9797" stroke="#ff9797" stroke-width="3" cx="83.53" cy="-173" rx="60.85" ry="18" style=""/>
<text text-anchor="middle" x="83.53" y="-168.8" font-family="Times,serif" font-size="14.00" style="">newProposal</text>
</g>
<!-- DAOProject.onlyChairPerson -->
<g id="node12" class="node" pointer-events="visible" data-name="DAOProject.onlyChairPerson">

<ellipse fill="#edad56" stroke="#edad56" stroke-width="3" cx="303.73" cy="-173" rx="75.89" ry="18" style=""/>
<text text-anchor="middle" x="303.73" y="-168.8" font-family="Times,serif" font-size="14.00" style="">onlyChairPerson</text>
</g>
<!-- DAOProject.newProposal&#45;&gt;DAOProject.onlyChairPerson -->
<g id="edge7" class="edge" data-name="DAOProject.newProposal-&gt;DAOProject.onlyChairPerson">

<path fill="none" stroke="#1bc6a6" stroke-width="2" d="M144.73,-173C167.13,-173 193.01,-173 217.25,-173" style=""/>
<polygon fill="#1bc6a6" stroke="#1bc6a6" stroke-width="2" points="217.52,-176.5 227.52,-173 217.52,-169.5 217.52,-176.5" style=""/>
</g>
<!-- Counters.Counter.increment -->
<g id="node19" class="node" pointer-events="visible" data-name="Counters.Counter.increment">

<ellipse fill="#edad56" stroke="#edad56" stroke-width="3" cx="303.73" cy="-34" rx="49.79" ry="18" style=""/>
<text text-anchor="middle" x="303.73" y="-29.8" font-family="Times,serif" font-size="14.00" style="">increment</text>
</g>
<!-- DAOProject.newProposal&#45;&gt;Counters.Counter.increment -->
<g id="edge8" class="edge" data-name="DAOProject.newProposal-&gt;Counters.Counter.increment">

<path fill="none" stroke="white" stroke-width="2" d="M95.72,-155.17C112.43,-130.09 146.33,-84.83 187.05,-61 204.71,-50.67 226.05,-44.29 245.57,-40.35" style=""/>
<polygon fill="white" stroke="white" stroke-width="2" points="246.39,-43.76 255.59,-38.51 245.12,-36.88 246.39,-43.76" style=""/>
</g>
<!-- Counters.Counter.current -->
<g id="node20" class="node" pointer-events="visible" data-name="Counters.Counter.current">

<ellipse fill="#edad56" stroke="#edad56" stroke-width="3" cx="303.73" cy="-88" rx="38.26" ry="18" style=""/>
<text text-anchor="middle" x="303.73" y="-83.8" font-family="Times,serif" font-size="14.00" style="">current</text>
</g>
<!-- DAOProject.newProposal&#45;&gt;Counters.Counter.current -->
<g id="edge9" class="edge" data-name="DAOProject.newProposal-&gt;Counters.Counter.current">

<path fill="none" stroke="white" stroke-width="2" d="M113.05,-157.16C150.35,-140.23 216.03,-114.38 259.46,-99.34" style=""/>
<polygon fill="white" stroke="white" stroke-width="2" points="260.85,-102.57 269.18,-96.03 258.59,-95.94 260.85,-102.57" style=""/>
</g>
<!-- DAOProject.newProposal&#45;&gt;Counters.Counter.current -->
<g id="edge10" class="edge" data-name="DAOProject.newProposal-&gt;Counters.Counter.current">

<path fill="none" stroke="white" stroke-width="2" d="M129.47,-161.07C171.04,-146.6 231.89,-122.72 269.31,-106.04" style=""/>
<polygon fill="white" stroke="white" stroke-width="2" points="271.09,-109.08 278.75,-101.76 268.2,-102.7 271.09,-109.08" style=""/>
</g>
<!-- DAOProject.voting -->
<g id="node5" class="node" pointer-events="visible" data-name="DAOProject.voting">

<ellipse fill="#ff9797" stroke="#ff9797" stroke-width="3" cx="83.53" cy="-389" rx="35.93" ry="18" style=""/>
<text text-anchor="middle" x="83.53" y="-384.8" font-family="Times,serif" font-size="14.00" style="">voting</text>
</g>
<!-- DAOProject.proposalIDdoesnotexist -->
<g id="node13" class="node" pointer-events="visible" data-name="DAOProject.proposalIDdoesnotexist">

<ellipse fill="#edad56" stroke="#edad56" stroke-width="3" cx="303.73" cy="-335" rx="102.53" ry="18" style=""/>
<text text-anchor="middle" x="303.73" y="-330.8" font-family="Times,serif" font-size="14.00" style="">proposalIDdoesnotexist</text>
</g>
<!-- DAOProject.voting&#45;&gt;DAOProject.proposalIDdoesnotexist -->
<g id="edge12" class="edge" data-name="DAOProject.voting-&gt;DAOProject.proposalIDdoesnotexist">

<path fill="none" stroke="#1bc6a6" stroke-width="2" d="M115.42,-380.62C135.74,-375.17 162.94,-367.99 187.05,-362 201.04,-358.53 216,-354.94 230.38,-351.56" style=""/>
<polygon fill="#1bc6a6" stroke="#1bc6a6" stroke-width="2" points="231.28,-354.94 240.21,-349.25 229.68,-348.13 231.28,-354.94" style=""/>
</g>
<!-- DAOProject.proposalClosed -->
<g id="node14" class="node" pointer-events="visible" data-name="DAOProject.proposalClosed">

<ellipse fill="#edad56" stroke="#edad56" stroke-width="3" cx="303.73" cy="-389" rx="71.24" ry="18" style=""/>
<text text-anchor="middle" x="303.73" y="-384.8" font-family="Times,serif" font-size="14.00" style="">proposalClosed</text>
</g>
<!-- DAOProject.voting&#45;&gt;DAOProject.proposalClosed -->
<g id="edge13" class="edge" data-name="DAOProject.voting-&gt;DAOProject.proposalClosed">

<path fill="none" stroke="#1bc6a6" stroke-width="2" d="M119.58,-389C147.21,-389 186.84,-389 222.17,-389" style=""/>
<polygon fill="#1bc6a6" stroke="#1bc6a6" stroke-width="2" points="222.49,-392.5 232.49,-389 222.49,-385.5 222.49,-392.5" style=""/>
</g>
<!-- DAOProject.insufficentVotingPower -->
<g id="node15" class="node" pointer-events="visible" data-name="DAOProject.insufficentVotingPower">

<ellipse fill="#edad56" stroke="#edad56" stroke-width="3" cx="303.73" cy="-443" rx="103.67" ry="18" style=""/>
<text text-anchor="middle" x="303.73" y="-438.8" font-family="Times,serif" font-size="14.00" style="">insufficentVotingPower</text>
</g>
<!-- DAOProject.voting&#45;&gt;DAOProject.insufficentVotingPower -->
<g id="edge14" class="edge" data-name="DAOProject.voting-&gt;DAOProject.insufficentVotingPower">

<path fill="none" stroke="#1bc6a6" stroke-width="2" d="M115.42,-397.38C135.74,-402.83 162.94,-410.01 187.05,-416 201.04,-419.47 216,-423.06 230.38,-426.44" style=""/>
<polygon fill="#1bc6a6" stroke="#1bc6a6" stroke-width="2" points="229.68,-429.87 240.21,-428.75 231.28,-423.06 229.68,-429.87" style=""/>
</g>
<!-- DAOProject.alreadyVoted -->
<g id="node16" class="node" pointer-events="visible" data-name="DAOProject.alreadyVoted">

<ellipse fill="#edad56" stroke="#edad56" stroke-width="3" cx="303.73" cy="-497" rx="63.1" ry="18" style=""/>
<text text-anchor="middle" x="303.73" y="-492.8" font-family="Times,serif" font-size="14.00" style="">alreadyVoted</text>
</g>
<!-- DAOProject.voting&#45;&gt;DAOProject.alreadyVoted -->
<g id="edge15" class="edge" data-name="DAOProject.voting-&gt;DAOProject.alreadyVoted">

<path fill="none" stroke="#1bc6a6" stroke-width="2" d="M100.37,-405.27C119.29,-423.74 152.72,-453.46 187.05,-470 202.58,-477.48 220.3,-482.96 237.13,-486.94" style=""/>
<polygon fill="#1bc6a6" stroke="#1bc6a6" stroke-width="2" points="236.39,-490.36 246.91,-489.11 237.91,-483.53 236.39,-490.36" style=""/>
</g>
<!-- DAOProject.voting&#45;&gt;Counters.Counter.current -->
<g id="edge11" class="edge" data-name="DAOProject.voting-&gt;Counters.Counter.current">

<path fill="none" stroke="white" stroke-width="2" d="M101.38,-373.27C116.68,-358.04 138.67,-333.55 151.05,-308 183.78,-240.45 140.39,-201.79 187.05,-143 204.91,-120.5 234.21,-106.7 258.85,-98.55" style=""/>
<polygon fill="white" stroke="white" stroke-width="2" points="260.2,-101.79 268.72,-95.5 258.14,-95.11 260.2,-101.79" style=""/>
</g>
<!-- DAOProject.endProposal -->
<g id="node6" class="node" pointer-events="visible" data-name="DAOProject.endProposal">

<ellipse fill="#ff9797" stroke="#ff9797" stroke-width="3" cx="83.53" cy="-281" rx="58.56" ry="18" style=""/>
<text text-anchor="middle" x="83.53" y="-276.8" font-family="Times,serif" font-size="14.00" style="">endProposal</text>
</g>
<!-- DAOProject.endProposal&#45;&gt;DAOProject.proposalIDdoesnotexist -->
<g id="edge17" class="edge" data-name="DAOProject.endProposal-&gt;DAOProject.proposalIDdoesnotexist">

<path fill="none" stroke="#1bc6a6" stroke-width="2" d="M128.11,-292.77C146.3,-297.6 167.67,-303.19 187.05,-308 201.04,-311.47 216,-315.06 230.38,-318.44" style=""/>
<polygon fill="#1bc6a6" stroke="#1bc6a6" stroke-width="2" points="229.68,-321.87 240.21,-320.75 231.28,-315.06 229.68,-321.87" style=""/>
</g>
<!-- DAOProject.endProposal&#45;&gt;DAOProject.proposalClosed -->
<g id="edge18" class="edge" data-name="DAOProject.endProposal-&gt;DAOProject.proposalClosed">

<path fill="none" stroke="#1bc6a6" stroke-width="2" d="M101.4,-298.27C120.49,-316.8 153.33,-345.75 187.05,-362 201,-368.72 216.71,-373.82 231.95,-377.67" style=""/>
<polygon fill="#1bc6a6" stroke="#1bc6a6" stroke-width="2" points="231.34,-381.12 241.88,-380.03 232.96,-374.31 231.34,-381.12" style=""/>
</g>
<!-- DAOProject.waitforProposalEndTime -->
<g id="node17" class="node" pointer-events="visible" data-name="DAOProject.waitforProposalEndTime">

<ellipse fill="#edad56" stroke="#edad56" stroke-width="3" cx="303.73" cy="-227" rx="108.82" ry="18" style=""/>
<text text-anchor="middle" x="303.73" y="-222.8" font-family="Times,serif" font-size="14.00" style="">waitforProposalEndTime</text>
</g>
<!-- DAOProject.endProposal&#45;&gt;DAOProject.waitforProposalEndTime -->
<g id="edge19" class="edge" data-name="DAOProject.endProposal-&gt;DAOProject.waitforProposalEndTime">

<path fill="none" stroke="#1bc6a6" stroke-width="2" d="M128.11,-269.23C146.3,-264.4 167.67,-258.81 187.05,-254 200.58,-250.64 215.03,-247.17 228.97,-243.89" style=""/>
<polygon fill="#1bc6a6" stroke="#1bc6a6" stroke-width="2" points="230.07,-247.22 239.01,-241.53 228.47,-240.41 230.07,-247.22" style=""/>
</g>
<!-- DAOProject.errorCallingFunction -->
<g id="node18" class="node" pointer-events="visible" data-name="DAOProject.errorCallingFunction">

<ellipse fill="#edad56" stroke="#edad56" stroke-width="3" cx="303.73" cy="-281" rx="92.64" ry="18" style=""/>
<text text-anchor="middle" x="303.73" y="-276.8" font-family="Times,serif" font-size="14.00" style="">errorCallingFunction</text>
</g>
<!-- DAOProject.endProposal&#45;&gt;DAOProject.errorCallingFunction -->
<g id="edge20" class="edge" data-name="DAOProject.endProposal-&gt;DAOProject.errorCallingFunction">

<path fill="none" stroke="#1bc6a6" stroke-width="2" d="M142.43,-281C160.36,-281 180.67,-281 200.67,-281" style=""/>
<polygon fill="#1bc6a6" stroke="#1bc6a6" stroke-width="2" points="200.76,-284.5 210.76,-281 200.76,-277.5 200.76,-284.5" style=""/>
</g>
<!-- DAOProject.endProposal&#45;&gt;Counters.Counter.current -->
<g id="edge16" class="edge" data-name="DAOProject.endProposal-&gt;Counters.Counter.current">

<path fill="none" stroke="white" stroke-width="2" d="M99.98,-263.49C113.9,-247.42 134.64,-222.72 151.05,-200 168.59,-175.71 164.64,-162.88 187.05,-143 208.54,-123.93 237.8,-110.1 261.52,-101.08" style=""/>
<polygon fill="white" stroke="white" stroke-width="2" points="262.78,-104.35 270.97,-97.62 260.38,-97.77 262.78,-104.35" style=""/>
</g>
<!-- key -->
<g id="node21" class="node" pointer-events="visible" data-name="key">

<polygon fill="#edad56" stroke="transparent" stroke-width="3" points="148.53,-922 18.53,-922 18.53,-834 148.53,-834 148.53,-922" style=""/>
<text text-anchor="start" x="68.16" y="-903.4" font-family="Times,serif" font-size="14.00" style="">Internal Call</text>
<text text-anchor="start" x="64.27" y="-883.4" font-family="Times,serif" font-size="14.00" style="">External Call</text>
<text text-anchor="start" x="41.73" y="-863.4" font-family="Times,serif" font-size="14.00" style="">Defined Contract</text>
<text text-anchor="start" x="28.13" y="-843.4" font-family="Times,serif" font-size="14.00" style="">Undefined Contract</text>
</g>
<!-- key2 -->
<g id="node22" class="node" pointer-events="visible" data-name="key2">

<polygon fill="#edad56" stroke="transparent" stroke-width="3" points="330.73,-922 276.73,-922 276.73,-834 330.73,-834 330.73,-922" style=""/>
<text text-anchor="start" x="293.73" y="-903.4" font-family="Times,serif" font-size="14.00" style="">   </text>
<text text-anchor="start" x="293.73" y="-883.4" font-family="Times,serif" font-size="14.00" style="">   </text>
<polygon fill="#445773" stroke="transparent" points="291.73,-858 291.73,-878 316.73,-878 316.73,-858 291.73,-858" style=""/>
<text text-anchor="start" x="293.73" y="-863.4" font-family="Times,serif" font-size="14.00" style="">   </text>
<polygon fill="none" stroke="#e8726d" points="293.73,-840 293.73,-856 314.73,-856 314.73,-840 293.73,-840" style=""/>
</g>
<!-- key&#45;&gt;key2 -->
<g id="edge21" class="edge" data-name="key-&gt;key2">

<path fill="none" stroke="#1bc6a6" stroke-width="2" d="M141.53,-908C204.34,-908 222.53,-908 280.63,-908" style=""/>
<polygon fill="#1bc6a6" stroke="#1bc6a6" stroke-width="2" points="280.73,-911.5 290.73,-908 280.73,-904.5 280.73,-911.5" style=""/>
</g>
<!-- key&#45;&gt;key2 -->
<g id="edge22" class="edge" data-name="key-&gt;key2">

<path fill="none" stroke="white" stroke-width="2" d="M141.53,-888C204.34,-888 222.53,-888 280.63,-888" style=""/>
<polygon fill="white" stroke="white" stroke-width="2" points="280.73,-891.5 290.73,-888 280.73,-884.5 280.73,-891.5" style=""/>
</g>
</g>
</svg>